<?xml version="1.0" encoding="UTF-8"?>
<svg width="100px" height="100px" viewBox="0 0 100 100" version="1.1" xmlns="http://www.w3.org/2000/svg" xmlns:xlink="http://www.w3.org/1999/xlink">
    <!-- Generator: Sketch 45.2 (43514) - http://www.bohemiancoding.com/sketch -->
    <title>postgresql</title>
    <desc>Created with Sketch.</desc>
    <defs></defs>
    <g id="Page-1" stroke="none" stroke-width="1" fill="none" fill-rule="evenodd">
        <g id="postgresql">
            <g>
                <path d="M50,0 C22.3857625,-1.69088438e-15 3.38176876e-15,22.3857625 0,50 C-3.38176876e-15,77.6142375 22.3857625,100 50,100 C63.2608245,100 75.9785201,94.732158 85.3553391,85.3553391 C94.732158,75.9785201 100,63.2608245 100,50 C100,22.3857625 77.6142375,1.69088438e-15 50,0 Z" id="path4784" fill="#336791" fill-rule="nonzero"></path>
                <path d="M63.37035,68.6567323 C63.7795771,65.247565 63.656939,64.7476231 66.1962275,65.2998559 L66.8409084,65.3564804 C68.7934405,65.4453172 71.3476074,65.0424458 72.8481552,64.3453295 C76.0783486,62.846515 77.9937571,60.3440611 74.8086321,61.0015981 C67.5432248,62.5004126 67.0437163,60.0402825 67.0437163,60.0402825 C74.7156062,48.6571795 77.9226876,34.2074004 75.1544457,30.6703947 C67.6040383,21.0227155 54.5344811,25.5848837 54.3157836,25.7033328 L54.2461586,25.7161889 C52.8106134,25.4183327 51.2040393,25.2403702 49.3992796,25.2111912 C46.1114506,25.1571669 43.6166527,26.0731251 41.7242118,27.508526 C41.7242118,27.508526 18.408808,17.9028817 19.4934839,39.5886008 C19.7241708,44.2017599 26.1059767,74.4956952 33.7174865,65.3455022 C36.4994512,61.999604 39.1879567,59.1705483 39.1879567,59.1705483 C40.5229646,60.0574721 42.1213051,60.5098899 43.7976487,60.3473835 L43.9272204,60.2368791 C43.8866299,60.6523177 43.9045417,61.0586559 43.979078,61.5396748 C42.0186011,63.7305498 42.5946681,64.1152205 38.6744365,64.9221189 C34.7082698,65.7395621 37.0383946,67.1948971 38.5593098,67.5752343 C40.4036488,68.0364635 44.6702718,68.6898114 47.5539294,64.653875 L47.4390915,65.114382 C48.2082884,65.7297395 48.1562864,69.5373003 48.2653462,72.2577294 C48.3745505,74.978303 48.5567021,77.5170139 49.111246,79.0138061 C49.66579,80.5103094 50.320149,84.3656831 55.4722512,83.2615064 C59.7781646,82.338759 63.0703271,81.0106846 63.37035,68.6565879" id="path6" stroke="#000000" stroke-width="5.29372062" fill="#000000" fill-rule="nonzero"></path>
                <path d="M74.8093544,61.0013092 C67.5432248,62.5001237 67.0437163,60.0399936 67.0437163,60.0399936 C74.7156062,48.6561684 77.9226876,34.2061004 75.1550235,30.669528 C67.6046161,21.0224266 54.5344811,25.5848837 54.3163614,25.7033328 L54.2461586,25.7159 C52.8106134,25.4178994 51.2040393,25.2403702 49.3984129,25.2109023 C46.1105839,25.1570224 43.6166527,26.0728362 41.7242118,27.5079482 C41.7242118,27.5079482 18.4083747,17.9027373 19.4927617,39.5883119 C19.7234485,44.2017599 26.10511,74.4956952 33.7169087,65.3455022 C36.4990178,61.999604 39.18709,59.1705483 39.18709,59.1705483 C40.5222424,60.0574721 42.1205829,60.5098899 43.7962042,60.3473835 L43.9263537,60.2368791 C43.8859077,60.6523177 43.9043973,61.0586559 43.9785002,61.5396748 C42.0175899,63.7305498 42.5938014,64.1152205 38.6738587,64.9221189 C34.7074031,65.7395621 37.0375279,67.1948971 38.5588764,67.5752343 C40.4032155,68.0364635 44.6701273,68.6898114 47.5532071,64.653875 L47.4382248,65.114382 C48.206555,65.7297395 48.7460762,69.1172393 48.6556504,72.18796 C48.5652246,75.2588252 48.5048445,77.3670747 49.1102349,79.0138061 C49.7156253,80.6605375 50.3189934,84.3656831 55.4721067,83.2615064 C59.7780201,82.338759 62.009341,79.9475317 62.3197643,75.9588305 C62.5400507,73.1231301 63.0385481,73.5423244 63.0700382,71.0070803 L63.4698761,69.8068442 C63.9309609,65.962882 63.5431123,64.7227777 66.1959386,65.299567 L66.8406195,65.3561915 C68.7931516,65.4450283 71.3486186,65.0421569 72.8484441,64.3450406 C76.0780597,62.8462261 77.9934682,60.3437722 74.8090655,61.0013092 L74.8093544,61.0013092 Z" id="path8" fill="#336791" fill-rule="nonzero"></path>
                <path d="M47.8652194,63.2047513 C47.665156,70.3573436 47.915488,77.5597712 48.6153488,79.3102178 C49.315643,81.0606643 50.8143129,84.4653537 55.9678595,83.3613214 C60.2733396,82.4382852 61.839901,80.6520149 62.5196833,76.7092488 C63.0203474,73.8084015 63.985563,65.7521293 64.1093567,64.1014977" id="path10" stroke="#FFFFFF" stroke-width="1.7645735" stroke-linecap="round" stroke-linejoin="round"></path>
                <path d="M41.6882437,27.3481864 C41.6882437,27.3481864 18.3565171,17.8121671 19.441193,39.4977417 C19.6718798,44.1111897 26.0539747,74.4061361 33.6656289,65.2555097 C36.4471603,61.9091782 38.962759,59.2846639 38.962759,59.2846639" id="path12" stroke="#FFFFFF" stroke-width="1.7645735" stroke-linecap="round" stroke-linejoin="round"></path>
                <path d="M54.2907937,25.6077068 C53.4831731,25.8609279 67.2693474,20.5679865 75.104177,30.5792467 C77.8716967,34.1159635 74.6646153,48.5660315 66.9928699,59.9501456" id="path14" stroke="#FFFFFF" stroke-width="1.7645735" stroke-linecap="round" stroke-linejoin="round"></path>
                <path d="M66.9927254,59.9501456 C66.9927254,59.9501456 67.4926673,62.4109979 74.7589413,60.9111723 C77.9426217,60.2536353 76.0266355,62.7563782 72.7977421,64.2559149 C70.1478048,65.4857632 64.2067161,65.8009534 64.1096456,64.1014977 C63.8598914,59.7167142 67.2365572,61.0488333 66.9928699,59.9501456 C66.7725835,58.9606623 65.262502,57.9895241 64.2636295,55.5678178 C63.3915841,53.4540792 52.303738,37.2444642 67.338539,39.65187 C67.8893273,39.5378988 63.4172963,25.351019 49.3468442,25.1203321 C35.27957,24.8896453 35.7410881,42.4199677 35.7410881,42.4199677" id="path16" stroke="#FFFFFF" stroke-width="1.7645735" stroke-linecap="round" stroke-linejoin="bevel"></path>
                <path d="M43.9272204,61.4496824 C41.9660212,63.6404129 42.5428105,64.0250836 38.6225789,64.8322709 C34.6561233,65.6498586 36.986537,67.1049047 38.5074522,67.4850974 C40.3517912,67.9466155 44.6187031,68.5999634 47.5017829,64.5630159 C48.3797507,63.3338898 47.4965827,61.3726904 46.2905687,60.8727486 C45.7078569,60.6313724 44.928693,60.3288939 43.9272204,61.4496824 L43.9272204,61.4496824 Z" id="path18" stroke="#FFFFFF" stroke-width="1.7645735" stroke-linecap="round" stroke-linejoin="round"></path>
                <path d="M43.7988043,61.4114031 C43.6011965,60.1233413 44.2220431,58.5905811 44.8873803,56.7973773 C45.887264,54.1068493 48.1942767,51.415888 46.3487821,42.8811969 C44.9731837,36.5212025 35.7467217,41.5576004 35.7409437,42.4199677 C35.7353101,43.282046 36.15826,46.7910284 35.5868154,50.8772334 C34.8411639,56.2093208 38.9796596,60.7189092 43.7452133,60.2575355" id="path20" stroke="#FFFFFF" stroke-width="1.7645735" stroke-linecap="round" stroke-linejoin="round"></path>
                <path d="M41.6034515,42.2906848 C41.5618498,42.5852186 42.1426837,43.3711717 42.9000357,43.476187 C43.6560876,43.5816356 44.3032241,42.9674336 44.3442479,42.6731887 C44.3852717,42.3786549 43.8051601,42.05422 43.0475192,41.9487714 C42.291034,41.8431783 41.6436086,41.9968733 41.6035959,42.2906848 L41.6034515,42.2906848 Z" id="path22" stroke="#FFFFFF" stroke-width="0.588186463" fill="#FFFFFF" fill-rule="nonzero"></path>
                <path d="M64.6322662,41.6902057 C64.67329,41.9847395 64.0931783,42.7706926 63.3356819,42.8757078 C62.5790523,42.9811564 61.9319158,42.3669545 61.8904586,42.0727096 C61.8504459,41.7781758 62.430702,41.4537408 63.1874761,41.3482922 C63.9442503,41.2428436 64.5912423,41.3963941 64.6322662,41.6903501 L64.6322662,41.6902057 Z" id="path24" stroke="#FFFFFF" stroke-width="0.5" fill="#FFFFFF" fill-rule="nonzero"></path>
                <path d="M67.338539,39.65187 C67.4631995,41.9622052 66.8409084,43.5358449 66.762472,45.9952527 C66.6463341,49.5701043 68.4668388,53.6617985 65.7237312,57.7585484" id="path26" stroke="#FFFFFF" stroke-width="1.7645735" stroke-linecap="round" stroke-linejoin="round"></path>
                <g id="path28" stroke-linecap="round" stroke-linejoin="round" transform="translate(16.683351, 21.822102)"></g>
            </g>
        </g>
    </g>
</svg>