<?xml version="1.0" encoding="UTF-8" standalone="no"?>
<svg
   xmlns:dc="http://purl.org/dc/elements/1.1/"
   xmlns:cc="http://creativecommons.org/ns#"
   xmlns:rdf="http://www.w3.org/1999/02/22-rdf-syntax-ns#"
   xmlns:svg="http://www.w3.org/2000/svg"
   xmlns="http://www.w3.org/2000/svg"
   xmlns:xlink="http://www.w3.org/1999/xlink"
   xmlns:sodipodi="http://sodipodi.sourceforge.net/DTD/sodipodi-0.dtd"
   xmlns:inkscape="http://www.inkscape.org/namespaces/inkscape"
   width="100px"
   height="100px"
   viewBox="0 0 100 100"
   version="1.1"
   id="svg18"
   sodipodi:docname="icon.svg"
   inkscape:version="0.92.4 (5da689c313, 2019-01-14)">
  <metadata
     id="metadata22">
    <rdf:RDF>
      <cc:Work
         rdf:about="">
        <dc:format>image/svg+xml</dc:format>
        <dc:type
           rdf:resource="http://purl.org/dc/dcmitype/StillImage" />
        <dc:title>eclispe-che</dc:title>
      </cc:Work>
    </rdf:RDF>
  </metadata>
  <sodipodi:namedview
     pagecolor="#ffffff"
     bordercolor="#666666"
     borderopacity="1"
     objecttolerance="10"
     gridtolerance="10"
     guidetolerance="10"
     inkscape:pageopacity="0"
     inkscape:pageshadow="2"
     inkscape:window-width="1609"
     inkscape:window-height="811"
     id="namedview20"
     showgrid="false"
     inkscape:pagecheckerboard="true"
     inkscape:zoom="4.72"
     inkscape:cx="5.5295369"
     inkscape:cy="48.99602"
     inkscape:window-x="1311"
     inkscape:window-y="651"
     inkscape:window-maximized="0"
     inkscape:current-layer="layer1" />
  <!-- Generator: Sketch 45.2 (43514) - http://www.bohemiancoding.com/sketch -->
  <title
     id="title2">eclispe-che</title>
  <desc
     id="desc4">Created with Sketch.</desc>
  <defs
     id="defs7">
    <path
       d="M50.0004412,4.04252804e-14 C22.3871247,4.04252804e-14 0,22.3848726 0,49.9995588 C0,77.6133626 22.3871247,100 50.0004412,100 C77.6137577,100 100,77.6133626 100,49.9995588 C100,22.3848726 77.6128753,3.55271368e-14 50.0004412,4.04252804e-14 Z"
       id="path-1" />
  </defs>
  <g
     inkscape:groupmode="layer"
     id="layer1"
     inkscape:label="BACKGROUND">
    <g
       style="fill:#ffffff;fill-opacity:1;fill-rule:evenodd;stroke:none;stroke-width:1;stroke-opacity:1"
       id="Page-1">
      <g
         id="eclispe-che"
         style="fill:#ffffff;fill-opacity:1;stroke:none;stroke-opacity:1">
        <g
           id="path3023-path"
           style="fill:#ffffff;fill-opacity:1;stroke:none;stroke-opacity:1">
          <use
             xlink:href="#path-1"
             id="use9"
             style="fill:#ffffff;fill-opacity:1;fill-rule:evenodd;stroke:none;stroke-opacity:1"
             x="0"
             y="0"
             width="100%"
             height="100%" />
          <path
             d="M 50.000441,0.5 C 22.662621,0.5 0.5,22.661661 0.5,49.999559 0.5,77.337051 22.663098,99.5 50.000441,99.5 77.337613,99.5 99.5,77.337222 99.5,49.999559 99.5,22.661796 77.337514,0.5 50.000441,0.5 Z"
             id="path11"
             style="fill:#ffffff;fill-opacity:1;stroke:none;stroke-width:1;stroke-opacity:1"
             inkscape:connector-curvature="0" />
        </g>
      </g>
    </g>
    <g
       style="display:inline"
       id="g162"
       transform="matrix(0.72462044,0,0,0.72462044,1.0658239,17.400616)">
      <path
         inkscape:connector-curvature="0"
         id="XMLID_107_"
         d="m 66.155661,19.063745 c -11.80525,0 -21.81118,8.00318 -24.91235,18.84659 -2.69524,-5.75151 -8.53592,-9.78093 -15.26337,-9.78093 -9.25183,0 -16.8570795,7.60525 -16.8570795,16.85708 0,9.25182 7.6052495,16.86054 16.8570795,16.86054 6.72745,0 12.56813,-4.03188 15.26337,-9.78439 3.10117,10.84422 13.1071,18.85006 24.91235,18.85006 11.71795,0 21.67286,-7.8851 24.85334,-18.60701 2.74505,5.62192 8.513439,9.54134 15.145329,9.54134 9.25183,0 16.86055,-7.60872 16.86055,-16.86054 0,-9.25183 -7.60872,-16.85708 -16.86055,-16.85708 -6.63189,0 -12.400279,3.91696 -15.145329,9.53788 -3.18048,-10.72108 -13.13539,-18.60354 -24.85334,-18.60354 z m 0,9.8955 c 8.91163,0 16.03073,7.11564 16.03073,16.02724 0,8.9116 -7.1191,16.03071 -16.03073,16.03071 -8.91158,0 -16.02722,-7.11911 -16.02722,-16.03071 0,-8.9116 7.11564,-16.02724 16.02722,-16.02724 z m -40.17572,9.06567 c 3.90437,0 6.96504,3.05718 6.96504,6.96157 0,3.90438 -3.06067,6.96504 -6.96504,6.96504 -3.90439,0 -6.96158,-3.06066 -6.96158,-6.96504 0,-3.90439 3.05719,-6.96157 6.96158,-6.96157 z m 80.174389,0 c 3.9044,0 6.96504,3.05718 6.96504,6.96157 0,3.90438 -3.06066,6.96504 -6.96504,6.96504 -3.90437,0 -6.96156,-3.06066 -6.96156,-6.96504 0,-3.90439 3.05721,-6.96157 6.96156,-6.96157 z"
         style="color:#000000;font-style:normal;font-variant:normal;font-weight:normal;font-stretch:normal;font-size:medium;line-height:normal;font-family:sans-serif;text-indent:0;text-align:start;text-decoration:none;text-decoration-line:none;text-decoration-style:solid;text-decoration-color:#000000;letter-spacing:normal;word-spacing:normal;text-transform:none;writing-mode:lr-tb;direction:ltr;baseline-shift:baseline;text-anchor:start;white-space:normal;clip-rule:nonzero;display:inline;overflow:visible;visibility:visible;opacity:1;isolation:auto;mix-blend-mode:normal;color-interpolation:sRGB;color-interpolation-filters:linearRGB;solid-color:#000000;solid-opacity:1;fill:#0082c9;fill-opacity:1;fill-rule:nonzero;stroke:none;stroke-width:5.56589985;stroke-linecap:butt;stroke-linejoin:miter;stroke-miterlimit:10;stroke-dasharray:none;stroke-dashoffset:0;stroke-opacity:1;color-rendering:auto;image-rendering:auto;shape-rendering:auto;text-rendering:auto;enable-background:accumulate" />
    </g>
  </g>
  <g
     inkscape:groupmode="layer"
     id="layer2"
     inkscape:label="PLACE LOGO HERE" />
</svg>
