<svg height="51.426003" viewBox="0 0 51.426003 51.426003" width="51.426003" xmlns="http://www.w3.org/2000/svg"><circle cx="25.713001" cy="25.713" fill="#003b4e" r="24.713001" stroke="#000" stroke-width="2"/><g fill="#fff" stroke-width=".9998" transform="matrix(.52910605 0 0 .52910605 10.102984 11.29671)"><path d="m59.693 54.636-11.844-20.306c-.405-.695-1.128-1.11-1.933-1.11s-1.528.415-1.933 1.11l-11.846 20.306c-.409.7-.412 1.539-.008 2.242s1.129 1.123 1.94 1.123h23.691c.811 0 1.536-.42 1.939-1.123.405-.703.403-1.541-.006-2.242zm-1.727 1.246c-.03.055-.092.119-.205.119h-23.691c-.114 0-.175-.064-.206-.119s-.056-.14.001-.238l11.845-20.306c.057-.098.143-.118.206-.118.062 0 .148.021.205.118l11.845 20.306c.056.098.032.183 0 .238z"/><path d="m46 40.001c-.552 0-1 .447-1 1v8c0 .553.448 1 1 1s1-.447 1-1v-8c0-.553-.448-1-1-1z"/><path d="m45.29 52.291c-.18.189-.29.45-.29.71s.11.52.29.71c.19.18.45.29.71.29s.52-.11.71-.29c.18-.19.29-.44.29-.71 0-.271-.11-.521-.29-.7-.37-.38-1.05-.38-1.42-.01z"/><path d="m41.391 32.818c.934-1.603 2.668-2.599 4.524-2.599 1.857 0 3.59.996 4.525 2.601l7.56 12.958v-42.777c0-.553-.448-1-1-1h-56c-.552 0-1 .447-1 1v44c0 .553.448 1 1 1h31.534zm-25.391-22.817c3.071 0 5.569 2.498 5.569 5.569 0 3.07-2.498 5.568-5.569 5.568s-5.569-2.498-5.569-5.568c0-3.071 2.498-5.569 5.569-5.569zm-8.339 28.751c-.19.167-.426.249-.66.249-.277 0-.553-.114-.751-.339-.365-.415-.325-1.047.09-1.412l17.017-14.982c.396-.348.994-.329 1.368.044l4.743 4.743 9.794-10.727c.179-.196.429-.313.694-.325.264-.006.524.083.72.262l12 11c.407.373.435 1.006.062 1.413-.373.406-1.006.435-1.413.062l-11.262-10.325-9.181 10.054 4.807 4.807c.391.391.391 1.023 0 1.414s-1.023.391-1.414 0l-10.301-10.301z"/></g></svg>