<svg height="198.424" viewBox="0 0 198.424 198.424" width="198.424" xmlns="http://www.w3.org/2000/svg"><g fill="none"><circle cx="99.211998" cy="99.211998" fill="#e95420" r="99.211998"/><g fill="#fff" transform="translate(41.669998 16.965996)"><circle cx="63.212002" cy="76.575996" r="6.142"/><path d="m68.881 65.237h-11.338v-45.354c0-10.94 8.902-19.842 19.842-19.842 10.941 0 19.842 8.902 19.842 19.842v11.339l-11.338-.001v-11.338c0-2.272-.885-4.408-2.491-6.014-1.606-1.604-3.741-2.491-6.013-2.491-4.689 0-8.504 3.816-8.504 8.505z"/><path d="m105.73 85.079c-10.94 0-19.842-8.9-19.842-19.842v-28.345h11.338v28.345c0 4.69 3.814 8.505 8.504 8.505s8.5-3.814 8.5-8.505v-28.345h11.34v28.345c0 5.3-2.06 10.283-5.81 14.031-3.74 3.749-8.73 5.811-14.03 5.811z"/><circle cx="6.519" cy="144.60001" r="6.142"/><path d="m12.188 133.27h-11.338v-62.362c0-10.941 8.901-19.842 19.843-19.842 10.941 0 19.842 8.901 19.842 19.842v11.339h-11.339v-11.339c0-2.272-.884-4.408-2.491-6.014-1.606-1.604-3.742-2.491-6.013-2.491-4.689 0-8.504 3.816-8.504 8.505z"/><path d="m49.039 136.1c-10.941 0-19.843-8.9-19.843-19.84v-28.346h11.339v28.346c0 4.69 3.815 8.5 8.504 8.5s8.504-3.81 8.504-8.5v-28.346h11.338v28.346c0 5.3-2.064 10.28-5.812 14.03s-8.731 5.81-14.03 5.81z"/></g></g></svg>