<svg height="718.7132" viewBox="0 0 1244.2878 718.71319" width="1244.2878" xmlns="http://www.w3.org/2000/svg" xmlns:xlink="http://www.w3.org/1999/xlink"><filter id="a" color-interpolation-filters="sRGB" height="1.030639" width="1.043634" x="-.021817" y="-.01532"><feGaussianBlur stdDeviation="1.5622236"/></filter><linearGradient id="b" gradientUnits="userSpaceOnUse" spreadMethod="reflect" x1="438.28134" x2="987.03552" y1="135.74998" y2="135.74998"><stop offset="0" stop-color="#21aed7"/><stop offset="1" stop-color="#163fbb"/></linearGradient><radialGradient id="c" cx="399.64581" cy="142.77863" gradientTransform="matrix(1.1106267 0 .08920795 1.1999337 -57.319377 -43.285927)" gradientUnits="userSpaceOnUse" r="444.57895"><stop offset="0" stop-color="#3a3a3a"/><stop offset="1" stop-color="#171717"/></radialGradient><filter id="d" color-interpolation-filters="sRGB" height="1.641332" width="1.29148" x="-.14574" y="-.320666"><feGaussianBlur stdDeviation="53.994141"/></filter><radialGradient id="e" cx="106.07119" cy="116.63881" gradientTransform="matrix(1 0 0 1.2859508 0 -37.499566)" gradientUnits="userSpaceOnUse" r="76.129745"><stop offset="0" stop-color="#35b9e0"/><stop offset="1" stop-color="#163fbb"/></radialGradient><path d="m-49.698711-65.989143h889.1579v404.11493h-889.1579z" fill="#104ea2" filter="url(#d)" transform="matrix(1.0835632 0 0 1.0835632 201.294524 207.2324)"/><path d="m-49.698711-65.989143h889.1579v404.11493h-889.1579z" fill="url(#c)" transform="translate(227.26364 223.28825)"/><g transform="translate(198.016576 221.054093)"><g><g id="f" fill="url(#e)" transform="matrix(1.212135 0 0 1.212135 7.15199 -26.916402)"><g fill="url(#e)" transform="translate(3.34703 .478147)"><path d="m98.922912 44.395363-78.997131 175.385887 18.509574-19.40672 23.504642-47.60254 66.278753-53.543474-23.808 8.593414-36.828719 29.46127 50.320309-110.630856z" fill="url(#e)" fill-rule="evenodd"/><path d="m162.45724 86.944318 10.73699-19.104745-105.092465 84.801787-7.631842 16.17506 44.549187-35.2147s2.29265 17.55839 5.23853 25.83772c6.30215 17.71206 14.08695 35.57577 26.22654 49.93073 6.82101 8.06579 25.21833 19.19073 25.21833 19.19073s-17.19735-19.00203-23.95553-29.81101c-7.71136-12.3335-14.15196-25.62411-18.61135-39.46948-3.33744-10.36199-5.92931-32.11586-5.92931-32.11586z" fill="url(#e)" fill-rule="evenodd"/></g></g></g><use filter="url(#a)" height="100%" width="100%" xlink:href="#f"/></g><g transform="translate(227.26364 223.28825)"><g fill="url(#b)"><g transform="scale(1.1409881 .87643334)"><path d="m185.38543 56.417341h11.64599v36.379308l38.62779-36.379308h14.98989l-42.72119 40.12678 45.77682 45.949779h-15.33581l-41.3375-41.45281v41.45281h-11.64599z"/><path d="m289.68046 110.03502q-12.85671 0-17.8149 2.94033-4.9582 2.94032-4.9582 10.03169 0 5.65004 3.68982 8.99393 3.74747 3.28625 10.147 3.28625 8.82098 0 14.12509-6.22657 5.36177-6.28422 5.36177-16.66184v-2.36379zm21.15881-4.38166v36.84054h-10.60823v-9.80108q-3.63217 5.88064-9.05159 8.70566-5.41942 2.76737-13.26028 2.76737-9.91639 0-15.79704-5.53473-5.823-5.59238-5.823-14.93224 0-10.89649 7.26434-16.43122 7.32198-5.53473 21.79299-5.53473h14.87458v-1.03776q0-7.321987-4.84289-11.300073-4.78523-4.035739-13.4909-4.035739-5.53473 0-10.78119 1.326028-5.24646 1.326029-10.08935 3.978086v-9.801081q5.823-2.248484 11.30007-3.343898 5.47708-1.153069 10.66589-1.153069 14.00978 0 20.92819 7.264331 6.91841 7.264331 6.91841 22.023605z"/><path d="m343.24049 59.588279v18.333787h21.85064v8.244439h-21.85064v35.053275q0 7.89852 2.13317 10.14701 2.19083 2.24848 8.82097 2.24848h10.8965v8.87863h-10.8965q-12.28017 0-16.9501-4.55462-4.66993-4.61228-4.66993-16.7195v-35.053275h-7.78321v-8.244439h7.78321v-18.333787z"/><path d="m432.77626 103.52018v38.97372h-10.60823v-38.62779q0-9.166898-3.57451-13.721519-3.57451-4.55462-10.72354-4.55462-8.59036 0-13.54855 5.477075-4.9582 5.477075-4.9582 14.932234v36.49462h-10.66588v-89.708725h10.66588v35.168586q3.80513-5.822995 8.93628-8.705666 5.18881-2.882671 11.93426-2.882671 11.12711 0 16.8348 6.91841 5.70769 6.860757 5.70769 20.236346z"/><path d="m483.39595 110.03502q-12.85671 0-17.81491 2.94033-4.95819 2.94032-4.95819 10.03169 0 5.65004 3.68982 8.99393 3.74747 3.28625 10.147 3.28625 8.82097 0 14.12509-6.22657 5.36176-6.28422 5.36176-16.66184v-2.36379zm21.1588-4.38166v36.84054h-10.60823v-9.80108q-3.63216 5.88064-9.05158 8.70566-5.41942 2.76737-13.26029 2.76737-9.91639 0-15.79704-5.53473-5.82299-5.59238-5.82299-14.93224 0-10.89649 7.26433-16.43122 7.32198-5.53473 21.79299-5.53473h14.87458v-1.03776q0-7.321987-4.84288-11.300073-4.78524-4.035739-13.4909-4.035739-5.53473 0-10.78119 1.326028-5.24646 1.326029-10.08935 3.978086v-9.801081q5.82299-2.248484 11.30007-3.343898 5.47707-1.153069 10.66588-1.153069 14.00978 0 20.92819 7.264331 6.91841 7.264331 6.91841 22.023605z"/><path d="m563.88015 87.838455q-1.78726-1.037762-3.92044-1.498989-2.07552-.518881-4.61227-.518881-8.99393 0-13.83682 5.880649-4.78523 5.822995-4.78523 16.777146v34.01552h-10.66589v-64.571834h10.66589v10.031695q3.3439-5.880648 8.70566-8.705666 5.36177-2.882671 13.02968-2.882671 1.09541 0 2.42144.17296 1.32603.115307 2.94032.403574l.0577 10.896497z"/><path d="m597.60737 85.359358q-8.5327 0-13.4909 6.687796-4.95819 6.630144-4.95819 18.218476 0 11.58834 4.90054 18.27614 4.95819 6.63014 13.54855 6.63014 8.47506 0 13.43325-6.68779 4.95819-6.6878 4.95819-18.21849 0-11.473026-4.95819-18.160822-4.95819-6.74545-13.43325-6.74545zm0-8.993934q13.83682 0 21.73534 8.993934 7.89852 8.993933 7.89852 24.906272 0 15.8547-7.89852 24.90628-7.89852 8.99394-21.73534 8.99394-13.89447 0-21.79299-8.99394-7.84086-9.05158-7.84086-24.90628 0-15.912339 7.84086-24.906272 7.89852-8.993934 21.79299-8.993934z"/><path d="m685.93243 79.824629v10.031695q-4.49697-2.306136-9.33985-3.459205-4.84289-1.153068-10.0317-1.153068-7.89852 0-11.8766 2.421443-3.92044 2.421444-3.92044 7.264331 0 3.689819 2.82502 5.822995 2.82502 2.07552 11.35772 3.97809l3.63217.80714q11.30007 2.42145 16.02765 6.86076 4.78523 4.38166 4.78523 12.28018 0 8.99393-7.14902 14.24039-7.09137 5.24647-19.54451 5.24647-5.18881 0-10.83884-1.03777-5.59238-.9801-11.81895-2.99797v-10.95415q5.88065 3.05563 11.58833 4.61227 5.70769 1.49899 11.30007 1.49899 7.49495 0 11.53069-2.53675 4.03574-2.59441 4.03574-7.26433 0-4.32401-2.94033-6.63015-2.88267-2.30613-12.7414-4.43931l-3.68982-.8648q-9.85874-2.07552-14.2404-6.34188-4.38166-4.324-4.38166-11.818947 0-9.109241 6.45719-14.067435 6.45718-4.958194 18.33378-4.958194 5.88065 0 11.06946.864801 5.18881.864802 9.57047 2.594404z"/></g><g transform="scale(1.1852946 .84367212)"><path d="m174.09864 175.12708h52.69463v7.09271h-22.11255v55.19793h-8.46953v-55.19793h-22.11255z"/><path d="m260.08727 212.13431v3.75497h-35.29665q.50067 7.92714 4.75629 12.09932 4.29734 4.13046 11.93243 4.13046 4.42251 0 8.55297-1.08477 4.17218-1.08477 8.26092-3.2543v7.25959q-4.13046 1.75232-8.46953 2.6702-4.33906.91788-8.8033.91788-11.18144 0-17.73176-6.5086-6.5086-6.5086-6.5086-17.6066 0-11.4735 6.17482-18.19071 6.21655-6.75893 16.73045-6.75893 9.42912 0 14.89468 6.09138 5.50728 6.04967 5.50728 16.48011zm-7.67682-2.25297q-.0834-6.29999-3.54635-10.05496-3.42119-3.75496-9.09535-3.75496-6.42516 0-10.30528 3.6298-3.83841 3.6298-4.42252 10.22184l27.3695-.0417z"/><path d="m306.31502 192.48335v7.17615q-3.2543-1.79404-6.55032-2.6702-3.2543-.91788-6.59205-.91788-7.4682 0-11.59866 4.75629-4.13046 4.71456-4.13046 13.26753 0 8.55297 4.13046 13.30925 4.13046 4.71457 11.59866 4.71457 3.33775 0 6.59205-.87616 3.29602-.91788 6.55032-2.71192v7.09271q-3.21258 1.50198-6.67549 2.25297-3.42119.751-7.30131.751-10.55562 0-16.77217-6.63377-6.21655-6.63377-6.21655-17.89865 0-11.43177 6.25827-17.9821 6.3-6.55032 17.23111-6.55032 3.54635 0 6.92582.75099 3.37946.70927 6.55032 2.16954z"/><path d="m358.59243 209.21379v28.20393h-7.67681v-27.9536q0-6.63377-2.58675-9.92979-2.58675-3.29602-7.76026-3.29602-6.21655 0-9.80462 3.96357-3.58807 3.96357-3.58807 10.80595v26.40989h-7.71854v-64.91911h7.71854v25.45029q2.75363-4.2139 6.46687-6.29999 3.75497-2.08609 8.63642-2.08609 8.0523 0 12.18276 5.00662 4.13046 4.96489 4.13046 14.64435z"/><path d="m412.83077 209.21379v28.20393h-7.67681v-27.9536q0-6.63377-2.58675-9.92979-2.58675-3.29602-7.76025-3.29602-6.21655 0-9.80463 3.96357-3.58807 3.96357-3.58807 10.80595v26.40989h-7.71853v-46.72841h7.71853v7.25959q2.75364-4.2139 6.46688-6.29999 3.75496-2.08609 8.63641-2.08609 8.05231 0 12.18276 5.00662 4.13046 4.96489 4.13046 14.64435z"/><path d="m446.33337 196.07142q-6.17483 0-9.76291 4.83973-3.58807 4.79801-3.58807 13.18409 0 8.38608 3.54635 13.22581 3.58808 4.79801 9.80463 4.79801 6.1331 0 9.72117-4.83973 3.58808-4.83973 3.58808-13.18409 0-8.30264-3.58808-13.14237-3.58807-4.88145-9.72117-4.88145zm0-6.5086q10.01323 0 15.72911 6.5086 5.71589 6.5086 5.71589 18.02382 0 11.47349-5.71589 18.02382-5.71588 6.5086-15.72911 6.5086-10.05496 0-15.77084-6.5086-5.67417-6.55033-5.67417-18.02382 0-11.51522 5.67417-18.02382 5.71588-6.5086 15.77084-6.5086z"/><path d="m480.46179 172.49861h7.67681v64.91911h-7.67681z"/><path d="m522.26705 196.07142q-6.17483 0-9.7629 4.83973-3.58807 4.79801-3.58807 13.18409 0 8.38608 3.54635 13.22581 3.58807 4.79801 9.80462 4.79801 6.1331 0 9.72118-4.83973 3.58807-4.83973 3.58807-13.18409 0-8.30264-3.58807-13.14237-3.58808-4.88145-9.72118-4.88145zm0-6.5086q10.01323 0 15.72912 6.5086 5.71588 6.5086 5.71588 18.02382 0 11.47349-5.71588 18.02382-5.71589 6.5086-15.72912 6.5086-10.05495 0-15.77084-6.5086-5.67416-6.55033-5.67416-18.02382 0-11.51522 5.67416-18.02382 5.71589-6.5086 15.77084-6.5086z"/><path d="m587.14444 213.51113q0-8.34436-3.46291-12.93375-3.42118-4.5894-9.63773-4.5894-6.17483 0-9.63774 4.5894-3.42118 4.58939-3.42118 12.93375 0 8.30264 3.42118 12.89204 3.46291 4.5894 9.63774 4.5894 6.21655 0 9.63773-4.5894 3.46291-4.5894 3.46291-12.89204zm7.67681 18.10726q0 11.93244-5.29866 17.73177-5.29867 5.84105-16.22978 5.84105-4.04702 0-7.63509-.62583-3.58808-.5841-6.96754-1.83576v-7.4682q3.37946 1.83576 6.67548 2.71192 3.29603.87616 6.71721.87616 7.55165 0 11.30661-3.96357 3.75496-3.92185 3.75496-11.89072v-3.79668q-2.37814 4.13046-6.09138 6.17483-3.71324 2.04436-8.88674 2.04436-8.59469 0-13.85164-6.55032-5.25695-6.55032-5.25695-17.35627 0-10.84766 5.25695-17.39799 5.25695-6.55032 13.85164-6.55032 5.1735 0 8.88674 2.04437 3.71324 2.04437 6.09138 6.17483v-7.09271h7.67681z"/><path d="m630.07618 241.75679q-3.2543 8.34436-6.34172 10.88939-3.08741 2.54503-8.26091 2.54503h-6.13311v-6.42516h4.50596q3.17085 0 4.92317-1.50198 1.75232-1.50199 3.88013-7.09271l1.37682-3.50463-18.89998-45.97742h8.13575l14.60263 36.5483 14.60263-36.5483h8.13575z"/></g></g><text fill="#bbb" font-family="sans-serif" font-size="43.484386" letter-spacing="0" word-spacing="0" x="310.23508" y="262.80624"><tspan x="310.23508" y="262.80624">Pure Innovation</tspan></text></g></svg>